<svg width="80" height="80" viewBox="0 0 80 80" fill="none" xmlns="http://www.w3.org/2000/svg">
<circle cx="40" cy="40" r="33" fill="#0195E8"/>
<path d="M37.2495 34.5041C37.5725 33.5858 38.2101 32.8115 39.0493 32.3183C39.8885 31.8251 40.8753 31.6448 41.8347 31.8093C42.7941 31.9739 43.6643 32.4727 44.2912 33.2174C44.9181 33.9621 45.2612 34.9046 45.2598 35.8781C45.2598 38.626 41.1378 40 41.1378 40M41.191 45.5H41.2093M40.9161 54.6667C49.5226 54.6667 56.4995 47.6898 56.4995 39.0833C56.4995 30.4769 49.5226 23.5 40.9161 23.5C32.3097 23.5 25.3328 30.4769 25.3328 39.0833C25.3328 40.825 25.6185 42.4999 26.1457 44.0638C26.344 44.6523 26.4432 44.9466 26.4611 45.1726C26.4788 45.3959 26.4654 45.5524 26.4102 45.7694C26.3542 45.9892 26.2308 46.2177 25.9838 46.6748L22.9851 52.2253C22.5574 53.017 22.3435 53.4129 22.3914 53.7184C22.4331 53.9845 22.5897 54.2188 22.8196 54.3591C23.0836 54.5201 23.5312 54.4739 24.4263 54.3813L33.8148 53.4109C34.0992 53.3815 34.2413 53.3668 34.3709 53.3717C34.4983 53.3766 34.5883 53.3886 34.7126 53.4172C34.8389 53.4463 34.9978 53.5076 35.3156 53.63C37.0537 54.2996 38.942 54.6667 40.9161 54.6667Z" stroke="white" stroke-width="4" stroke-linecap="round" stroke-linejoin="round"/>
</svg>
