<svg width="80" height="80" viewBox="0 0 80 80" fill="none" xmlns="http://www.w3.org/2000/svg">
<circle cx="40" cy="40" r="33" fill="#0195E8"/>
<path d="M56.502 52.375H23.502C23.1373 52.375 22.7875 52.2301 22.5297 51.9723C22.2718 51.7144 22.127 51.3647 22.127 51C22.127 50.6353 22.2718 50.2856 22.5297 50.0277C22.7875 49.7699 23.1373 49.625 23.502 49.625H56.502C56.8666 49.625 57.2164 49.7699 57.4742 50.0277C57.7321 50.2856 57.877 50.6353 57.877 51C57.877 51.3647 57.7321 51.7144 57.4742 51.9723C57.2164 52.2301 56.8666 52.375 56.502 52.375Z" fill="white"/>
<path d="M53.75 56.5H26.25C25.8853 56.5 25.5356 56.3551 25.2777 56.0973C25.0199 55.8394 24.875 55.4897 24.875 55.125C24.875 54.7603 25.0199 54.4106 25.2777 54.1527C25.5356 53.8949 25.8853 53.75 26.25 53.75H53.75C54.1147 53.75 54.4644 53.8949 54.7223 54.1527C54.9801 54.4106 55.125 54.7603 55.125 55.125C55.125 55.4897 54.9801 55.8394 54.7223 56.0973C54.4644 56.3551 54.1147 56.5 53.75 56.5Z" fill="white"/>
<path d="M20.7549 41.375H19.3789V45.503C19.3789 46.2329 19.6689 46.9329 20.185 47.449C20.7011 47.9651 21.401 48.2551 22.1309 48.2551H26.259V46.879C26.2574 45.4198 25.677 44.0207 24.6451 42.9889C23.6132 41.957 22.2142 41.3766 20.7549 41.375Z" fill="white"/>
<path d="M59.2539 38.627H60.6289V33.127H59.2539C57.0666 33.1245 54.9697 32.2545 53.423 30.7078C51.8764 29.1612 51.0064 27.0642 51.0039 24.877V23.502H29.0039V24.877C29.0014 27.0642 28.1314 29.1612 26.5848 30.7078C25.0381 32.2545 22.9412 33.1245 20.7539 33.127H19.3789V38.627C19.8086 38.627 20.2675 38.627 20.7539 38.627C22.9412 38.6295 25.0381 39.4995 26.5848 41.0461C28.1314 42.5927 29.0014 44.6897 29.0039 46.877V48.252H51.0039V46.877C51.0064 44.6897 51.8764 42.5927 53.423 41.0461C54.9697 39.4995 57.0666 38.6295 59.2539 38.627ZM40.0039 44.127C38.3722 44.127 36.7772 43.6431 35.4205 42.7366C34.0637 41.8301 33.0063 40.5416 32.3819 39.0341C31.7575 37.5266 31.5941 35.8678 31.9124 34.2675C32.2308 32.6671 33.0165 31.1971 34.1703 30.0433C35.3241 28.8895 36.7941 28.1038 38.3944 27.7855C39.9948 27.4671 41.6536 27.6305 43.161 28.2549C44.6685 28.8794 45.957 29.9368 46.8635 31.2935C47.7701 32.6502 48.2539 34.2453 48.2539 35.877C48.2514 38.0642 47.3814 40.1612 45.8348 41.7078C44.2881 43.2545 42.1912 44.1245 40.0039 44.127Z" fill="white"/>
<path d="M40.0027 41.3785C43.0407 41.3785 45.5035 38.9157 45.5035 35.8777C45.5035 32.8397 43.0407 30.377 40.0027 30.377C36.9647 30.377 34.502 32.8397 34.502 35.8777C34.502 38.9157 36.9647 41.3785 40.0027 41.3785Z" fill="white"/>
<path d="M53.75 46.879V48.2551H57.878C58.6079 48.2551 59.3079 47.9651 59.824 47.449C60.3401 46.9329 60.6301 46.2329 60.6301 45.503V41.375H59.254C57.7948 41.3766 56.3957 41.957 55.3639 42.9889C54.332 44.0207 53.7516 45.4198 53.75 46.879Z" fill="white"/>
<path d="M59.254 30.382H60.6301V26.254C60.6301 25.5241 60.3401 24.8241 59.824 24.308C59.3079 23.7919 58.6079 23.502 57.878 23.502H53.75V24.878C53.7516 26.3372 54.332 27.7363 55.3639 28.7682C56.3957 29.8 57.7948 30.3804 59.254 30.382Z" fill="white"/>
<path d="M26.259 24.878V23.502H22.1309C21.401 23.502 20.7011 23.7919 20.185 24.308C19.6689 24.8241 19.3789 25.5241 19.3789 26.254V30.382H20.7549C22.2142 30.3804 23.6132 29.8 24.6451 28.7682C25.677 27.7363 26.2574 26.3372 26.259 24.878Z" fill="white"/>
</svg>
