<svg width="80" height="80" viewBox="0 0 80 80" fill="none" xmlns="http://www.w3.org/2000/svg">
<circle cx="40" cy="40" r="33" fill="#0195E8"/>
<path d="M53.0625 26.25H39.6657C39.2588 26.2513 38.8607 26.1317 38.5219 25.9063L36.1328 24.3087C35.3417 23.7797 34.411 23.4981 33.4593 23.5H26.9375C25.6616 23.5014 24.4383 24.0088 23.5361 24.9111C22.6338 25.8133 22.1264 27.0366 22.125 28.3125V30.375H57.875C57.875 27.7213 55.7163 26.25 53.0625 26.25Z" fill="white"/>
<path d="M54.4176 56.5H25.5856C24.3228 56.4986 23.1112 56.0009 22.2121 55.1143C21.3129 54.2277 20.7983 53.0232 20.7791 51.7606L19.3921 37.6032V37.5791C19.3466 37.0117 19.4192 36.441 19.605 35.903C19.7909 35.3649 20.0862 34.8712 20.4722 34.4528C20.8582 34.0344 21.3266 33.7005 21.848 33.472C22.3693 33.2435 22.9323 33.1253 23.5016 33.125H56.5102C57.0793 33.1256 57.6421 33.2439 58.1633 33.4725C58.6844 33.7011 59.1526 34.0351 59.5385 34.4535C59.9243 34.8718 60.2194 35.3655 60.4052 35.9034C60.5909 36.4413 60.6634 37.0119 60.618 37.5791V37.6032L59.2241 51.7606C59.2049 53.0232 58.6903 54.2277 57.7911 55.1143C56.892 56.0009 55.6804 56.4986 54.4176 56.5Z" fill="white"/>
</svg>
