<svg width="80" height="80" viewBox="0 0 80 80" fill="none" xmlns="http://www.w3.org/2000/svg">
<g id="Team">
<path id="Vector" d="M40.4616 7.00307C21.9031 6.75242 6.7524 21.9024 7.00307 40.46C7.25055 58.2577 21.7429 72.7494 39.5415 72.9968C58.1031 73.2507 73.2507 58.1007 72.9969 39.5431C72.7525 21.7422 58.2602 7.25054 40.4616 7.00307ZM39.8778 31.1336C39.9111 30.9433 39.9476 30.7529 39.9904 30.5641C40.3911 28.7114 41.2839 27.0011 42.5748 25.613C44.6197 23.4349 47.5182 22.2324 50.7372 22.2324C52.0914 22.2268 53.4365 22.4555 54.7128 22.9082C56.2994 23.4731 57.7282 24.4085 58.8805 25.6368C60.5755 27.4688 61.5844 29.8307 61.7361 32.3218C61.78 32.9239 61.78 33.5283 61.7361 34.1303C61.6139 35.8365 61.1727 37.5047 60.4352 39.0481C60.3548 39.2163 60.2708 39.3829 60.183 39.5478C60.0069 39.8762 59.8181 40.1983 59.615 40.5092C59.2108 41.13 58.7527 41.7139 58.2459 42.2542C56.1645 44.4752 53.4992 45.7014 50.7403 45.7014C49.7058 45.7008 48.6784 45.5303 47.6991 45.197C47.3701 45.0853 47.0471 44.9566 46.7313 44.8115C45.4091 44.1947 44.2198 43.3261 43.23 42.2542C41.1696 40.0195 39.9377 37.146 39.7398 34.1129C39.7112 33.7025 39.7017 33.2964 39.7112 32.8945C39.7235 32.3053 39.7792 31.7178 39.8778 31.1368V31.1336ZM16.1237 34.9949C16.2009 33.863 16.4803 32.754 16.9486 31.7206C17.0807 31.4328 17.228 31.1521 17.3897 30.8798C17.7131 30.334 18.0956 29.8254 18.5303 29.3632C19.1743 28.6762 19.9242 28.0967 20.7514 27.6467C21.1645 27.421 21.5947 27.2279 22.038 27.0693C23.7366 26.4752 25.5629 26.3444 27.3289 26.6902C29.2001 27.0521 30.9092 27.9959 32.212 29.387C33.758 31.0558 34.6292 33.2391 34.6567 35.5137C34.6647 35.8484 34.6567 36.1847 34.6329 36.5258C34.5361 37.8319 34.2141 39.1114 33.6811 40.3077C33.4258 40.8837 33.1217 41.4367 32.772 41.9607C32.0995 42.977 31.2531 43.8668 30.2718 44.5894C30.0338 44.7591 29.7863 44.9178 29.5309 45.0764C29.0285 45.3756 28.4969 45.6228 27.9444 45.8141C27.1182 46.1027 26.2495 46.2508 25.3743 46.2519C25.2268 46.2519 25.0793 46.2519 24.9333 46.2392C24.6418 46.2233 24.3516 46.1904 24.0639 46.1409C23.7777 46.0911 23.4944 46.0259 23.2152 45.9457C22.7957 45.8246 22.3863 45.6713 21.9904 45.4873C21.8571 45.4254 21.7271 45.3604 21.597 45.2922C18.7413 43.7867 16.5885 40.6662 16.1665 37.0239C16.1475 36.8573 16.1316 36.6908 16.1205 36.5226C16.0847 36.014 16.0857 35.5034 16.1237 34.9949ZM24.6779 63.3278C20.4538 60.5437 17.0591 56.6717 14.8513 52.12C14.7792 51.9744 14.7657 51.8068 14.8135 51.6515C14.8613 51.4963 14.9668 51.3653 15.1083 51.2855C18.056 49.6278 21.8207 48.7251 25.3775 48.7251C28.0745 48.7251 30.248 49.0424 32.1501 49.6579C32.3658 49.7289 32.5584 49.8564 32.708 50.0272C32.8576 50.1979 32.9587 50.4057 33.0006 50.6288C33.0426 50.8519 33.024 51.0822 32.9466 51.2956C32.8693 51.5091 32.7362 51.6979 32.561 51.8424C28.8566 54.8565 26.469 58.5909 25.3474 63.0661C25.3306 63.1345 25.2976 63.1979 25.2512 63.2509C25.2047 63.304 25.1462 63.345 25.0806 63.3707C25.0149 63.3964 24.9441 63.4059 24.874 63.3984C24.8039 63.3909 24.7366 63.3667 24.6779 63.3278ZM40.0015 67.9204C36.4298 67.924 32.8908 67.2389 29.5785 65.9025C29.4431 65.8466 29.3312 65.7456 29.2618 65.6167C29.1924 65.4877 29.1698 65.3387 29.1977 65.195C29.2612 64.8698 29.331 64.5731 29.3929 64.3256C30.5224 59.8155 33.3209 56.0764 37.4838 53.5096C41.1787 51.2332 45.8921 49.9799 50.734 49.9799C55.6774 49.9799 60.2528 51.1824 63.9778 53.4557C64.0727 53.5151 64.1408 53.609 64.1677 53.7176C64.1946 53.8263 64.1783 53.9411 64.1222 54.0379C61.6656 58.258 58.1458 61.7605 53.9136 64.1963C49.6814 66.6321 44.8847 67.9161 40.0015 67.9204Z" fill="#0195E8"/>
<path id="Vector_2" d="M25.1958 46.1421C24.8964 46.1257 24.5982 46.0919 24.3027 46.041C24.5982 46.0919 24.8964 46.1257 25.1958 46.1421Z" fill="#0195E8"/>
<path id="Vector_3" d="M21.0737 27.834C20.2515 28.2812 19.5062 28.8572 18.8661 29.5401C18.4341 29.9994 18.0539 30.505 17.7324 31.0475C18.0539 30.505 18.4341 29.9994 18.8661 29.5401C19.5062 28.8572 20.2515 28.2812 21.0737 27.834Z" fill="#0195E8"/>
<path id="Vector_4" d="M33.7793 40.3386C34.309 39.1497 34.629 37.8781 34.7252 36.5801C34.7489 36.2411 34.7568 35.9069 34.7489 35.5742C34.7573 35.9053 34.7494 36.2406 34.7252 36.5801C34.629 37.8781 34.309 39.1497 33.7793 40.3386Z" fill="#0195E8"/>
<path id="Vector_5" d="M21.0371 27.8511C21.456 27.6222 21.8921 27.4264 22.3416 27.2656C21.8921 27.4264 21.456 27.6222 21.0371 27.8511Z" fill="#0195E8"/>
<path id="Vector_6" d="M23.5166 45.8621C23.0889 45.7386 22.6713 45.5823 22.2676 45.3945C22.6713 45.5823 23.0889 45.7386 23.5166 45.8621Z" fill="#0195E8"/>
<path id="Vector_7" d="M16.5312 37.0625C16.9481 40.6665 19.0792 43.7425 21.895 45.2296C19.0729 43.7425 16.9481 40.6603 16.5312 37.0625Z" fill="#0195E8"/>
<path id="Vector_8" d="M39.7446 34.2243C39.9397 37.2139 41.1538 40.0463 43.1846 42.249C44.1602 43.3054 45.3324 44.1616 46.6356 44.7696C45.3324 44.1616 44.1602 43.3054 43.1846 42.249C41.1538 40.0463 39.9397 37.2139 39.7446 34.2243C39.7164 33.8199 39.707 33.4196 39.7164 33.0234C39.707 33.4143 39.7164 33.8146 39.7446 34.2243Z" fill="#0195E8"/>
<path id="Vector_9" d="M47.6177 45.1381C47.2815 45.0239 46.9515 44.8924 46.6289 44.7441C46.9515 44.8924 47.2815 45.0239 47.6177 45.1381Z" fill="#0195E8"/>
<path id="Vector_10" d="M39.9902 30.7564C40.3884 28.9152 41.2756 27.2154 42.5584 25.8359C41.2756 27.2154 40.3884 28.9152 39.9902 30.7564Z" fill="#0195E8"/>
<path id="Vector_11" d="M58.6164 25.8573C60.2906 27.6668 61.2872 29.9999 61.437 32.4605C61.2872 29.9999 60.2906 27.6668 58.6164 25.8573C57.4784 24.6441 56.0671 23.7201 54.5 23.1621C56.0671 23.7201 57.4784 24.6441 58.6164 25.8573Z" fill="#0195E8"/>
<path id="Vector_12" d="M61.4236 34.2168C61.3022 35.9124 60.8637 37.5702 60.1309 39.1041C60.8637 37.5702 61.3022 35.9124 61.4236 34.2168Z" fill="#0195E8"/>
<path id="Vector_13" d="M39.7148 33.0456C39.7272 32.4502 39.7837 31.8566 39.8838 31.2695C39.7837 31.8566 39.7272 32.4502 39.7148 33.0456Z" fill="#0195E8"/>
<path id="Vector_14" d="M59.8948 39.5586C59.7148 39.8941 59.5219 40.2232 59.3145 40.5409C59.5219 40.2232 59.7148 39.8941 59.8948 39.5586Z" fill="#0195E8"/>
<path id="Vector_15" d="M32.3407 29.5467C33.8677 31.195 34.7282 33.3516 34.7554 35.5983C34.7282 33.3516 33.8677 31.195 32.3407 29.5467C31.0539 28.1726 29.3658 27.2403 27.5176 26.8828C29.3658 27.2403 31.0539 28.1726 32.3407 29.5467Z" fill="#0195E8"/>
<path id="Vector_16" d="M29.7252 45.002C29.2191 45.3034 28.6836 45.5524 28.127 45.7451C28.6836 45.5524 29.2191 45.3034 29.7252 45.002Z" fill="#0195E8"/>
<path id="Vector_17" d="M16.4824 35.1002C16.5592 33.9751 16.8369 32.8729 17.3024 31.8457C16.8369 32.8729 16.5592 33.9751 16.4824 35.1002Z" fill="#0195E8"/>
<path id="Vector_18" d="M30.4644 44.5156C30.2137 44.7015 29.9548 44.8675 29.6875 45.0335C29.9548 44.8675 30.2137 44.7015 30.4644 44.5156Z" fill="#0195E8"/>
<path id="Vector_19" d="M33.7986 40.2988C33.5415 40.8791 33.2351 41.4363 32.8828 41.9642C33.2351 41.4363 33.5415 40.8791 33.7986 40.2988Z" fill="#0195E8"/>
<path id="Vector_20" d="M17.2969 31.8833C17.4326 31.5876 17.5838 31.2993 17.7499 31.0195C17.5838 31.2993 17.4326 31.5876 17.2969 31.8833Z" fill="#0195E8"/>
<path id="Vector_21" d="M30.418 44.54C31.3954 43.8203 32.2383 42.9341 32.9081 41.9219C32.2383 42.9341 31.3954 43.8203 30.418 44.54Z" fill="#0195E8"/>
</g>
</svg>
