<svg width="80" height="80" viewBox="0 0 80 80" fill="none" xmlns="http://www.w3.org/2000/svg">
<circle cx="40" cy="40" r="33" fill="#0195E8"/>
<path d="M57.0715 32.5559C56.8166 32.2992 56.5133 32.0956 56.1792 31.9569C55.8451 31.8182 55.4867 31.7473 55.125 31.748H49.625V30.373C49.625 27.8203 48.6109 25.3722 46.8059 23.5671C45.0009 21.7621 42.5527 20.748 40 20.748C37.4473 20.748 34.9991 21.7621 33.1941 23.5671C31.3891 25.3722 30.375 27.8203 30.375 30.373V31.748H24.875C24.1457 31.748 23.4462 32.0378 22.9305 32.5535C22.4147 33.0692 22.125 33.7687 22.125 34.498V53.0605C22.125 56.4121 24.9609 59.248 28.3125 59.248H51.6875C53.3087 59.2486 54.8657 58.6147 56.0256 57.482C56.6093 56.9252 57.0741 56.2558 57.392 55.5143C57.7099 54.7729 57.8742 53.9747 57.875 53.168V34.498C57.8761 34.1373 57.8057 33.7799 57.6678 33.4465C57.5298 33.1131 57.3272 32.8104 57.0715 32.5559ZM33.125 30.373C33.125 28.5497 33.8493 26.801 35.1386 25.5117C36.428 24.2224 38.1766 23.498 40 23.498C41.8234 23.498 43.572 24.2224 44.8614 25.5117C46.1507 26.801 46.875 28.5497 46.875 30.373V31.748H33.125V30.373ZM49.625 38.623C49.625 41.1758 48.6109 43.6239 46.8059 45.4289C45.0009 47.234 42.5527 48.248 40 48.248C37.4473 48.248 34.9991 47.234 33.1941 45.4289C31.3891 43.6239 30.375 41.1758 30.375 38.623V37.248C30.375 36.8834 30.5199 36.5336 30.7777 36.2758C31.0356 36.0179 31.3853 35.873 31.75 35.873C32.1147 35.873 32.4644 36.0179 32.7223 36.2758C32.9801 36.5336 33.125 36.8834 33.125 37.248V38.623C33.125 40.4464 33.8493 42.1951 35.1386 43.4844C36.428 44.7737 38.1766 45.498 40 45.498C41.8234 45.498 43.572 44.7737 44.8614 43.4844C46.1507 42.1951 46.875 40.4464 46.875 38.623V37.248C46.875 36.8834 47.0199 36.5336 47.2777 36.2758C47.5356 36.0179 47.8853 35.873 48.25 35.873C48.6147 35.873 48.9644 36.0179 49.2223 36.2758C49.4801 36.5336 49.625 36.8834 49.625 37.248V38.623Z" fill="white"/>
</svg>
