<svg width="80" height="80" viewBox="0 0 80 80" fill="none" xmlns="http://www.w3.org/2000/svg">
<circle cx="40" cy="40" r="33" fill="#0195E8"/>
<path d="M57.875 39.4792C57.8634 39.2648 57.7763 39.0613 57.6291 38.905C57.4818 38.7486 57.284 38.6494 57.0706 38.625L54.8672 38.2683C54.7681 38.2521 54.6769 38.2042 54.6072 38.1319C54.5375 38.0596 54.493 37.9667 54.4805 37.867C54.4384 37.5963 54.3945 37.3153 54.3344 37.0489C54.315 36.952 54.3264 36.8515 54.3669 36.7613C54.4074 36.6712 54.4751 36.596 54.5604 36.5462L56.5181 35.459C56.7124 35.36 56.8636 35.1929 56.9429 34.9896C57.0221 34.7863 57.0238 34.561 56.9477 34.3565L56.6083 33.4198C56.5338 33.2146 56.3863 33.044 56.194 32.9408C56.0017 32.8376 55.778 32.8089 55.5659 32.8603L53.3702 33.29C53.272 33.3075 53.1708 33.2936 53.081 33.2503C52.9911 33.2069 52.9173 33.1363 52.87 33.0485C52.742 32.8087 52.6027 32.5647 52.4575 32.3249C52.4048 32.2395 52.38 32.1397 52.3868 32.0395C52.3936 31.9394 52.4315 31.8438 52.4953 31.7663L53.9563 30.0785C54.1047 29.9192 54.1899 29.7112 54.1961 29.4936C54.2023 29.2759 54.1289 29.0635 53.9898 28.896L53.3521 28.1303C53.2134 27.9622 53.0173 27.8516 52.8017 27.8199C52.5861 27.7881 52.3664 27.8375 52.1851 27.9584L50.2627 29.1126C50.1774 29.1636 50.078 29.1859 49.9792 29.1762C49.8803 29.1664 49.7871 29.1252 49.7135 29.0584C49.5013 28.8719 49.2838 28.6923 49.0802 28.5265C49.002 28.4648 48.9455 28.3798 48.9189 28.2838C48.8924 28.1879 48.8971 28.0859 48.9324 27.9928L49.7281 25.8959C49.8148 25.6958 49.8249 25.4709 49.7567 25.2638C49.6884 25.0568 49.5464 24.882 49.3577 24.7727L48.4906 24.2665C48.3018 24.1577 48.0795 24.1223 47.8662 24.1672C47.6529 24.212 47.4637 24.334 47.3348 24.5098L45.9297 26.2749C45.8792 26.3516 45.8035 26.4084 45.7156 26.4353C45.6278 26.4623 45.5333 26.4578 45.4484 26.4227C45.396 26.4012 44.9526 26.2199 44.608 26.1048C44.5135 26.0739 44.4313 26.0137 44.3734 25.9328C44.3156 25.852 44.2852 25.7547 44.2866 25.6553L44.3201 23.4149C44.3321 23.1961 44.2639 22.9805 44.1283 22.8084C43.9927 22.6363 43.7991 22.5195 43.5836 22.4799L42.5996 22.308C42.3852 22.271 42.1647 22.313 41.979 22.4264C41.7932 22.5397 41.655 22.7166 41.5899 22.9242L40.8594 25.0563C40.8262 25.151 40.7636 25.2325 40.6807 25.2889C40.5978 25.3454 40.499 25.3738 40.3988 25.37H39.5609C39.4614 25.372 39.3639 25.3426 39.2821 25.286C39.2003 25.2294 39.1385 25.1484 39.1054 25.0546L38.3784 22.9345C38.3144 22.7254 38.1764 22.5468 37.9902 22.4321C37.804 22.3174 37.5824 22.2745 37.3669 22.3115L36.3812 22.4833C36.1671 22.5226 35.9745 22.6383 35.8392 22.8088C35.7039 22.9793 35.6351 23.1932 35.6456 23.4106L35.6799 25.6587C35.6806 25.7596 35.6487 25.8581 35.5889 25.9394C35.5292 26.0207 35.4447 26.0805 35.3482 26.1099C35.1514 26.1864 34.7243 26.3497 34.5301 26.4219C34.3582 26.4837 34.1709 26.4158 34.0196 26.2414L32.6223 24.5226C32.4941 24.3458 32.305 24.2227 32.0915 24.1768C31.878 24.131 31.655 24.1657 31.4656 24.2743L30.601 24.7753C30.4103 24.8848 30.2668 25.061 30.1983 25.27C30.1297 25.4789 30.1409 25.7059 30.2298 25.9071L31.0247 27.9988C31.0594 28.0921 31.0639 28.194 31.0377 28.29C31.0115 28.386 30.9559 28.4714 30.8786 28.5342C30.6698 28.7061 30.4558 28.878 30.2427 29.0687C30.1695 29.1349 30.077 29.176 29.9789 29.1859C29.8807 29.1958 29.7819 29.174 29.697 29.1237L27.7969 27.9473C27.6144 27.8286 27.3949 27.7805 27.1796 27.8122C26.9643 27.8438 26.7679 27.953 26.6273 28.1191L25.9922 28.8831C25.8511 29.0495 25.7764 29.262 25.7822 29.48C25.7881 29.698 25.8742 29.9062 26.024 30.0648L27.4918 31.7508C27.5569 31.8268 27.5959 31.9218 27.6029 32.0216C27.6098 32.1214 27.5844 32.2209 27.5305 32.3051C27.3835 32.5389 27.2435 32.7847 27.1163 33.0305C27.0687 33.1189 26.9943 33.1899 26.9039 33.2335C26.8134 33.277 26.7114 33.2908 26.6127 33.2728L24.4204 32.8491C24.2081 32.7979 23.9845 32.8266 23.792 32.9298C23.5996 33.033 23.4519 33.2034 23.3771 33.4086L23.0334 34.3436C22.9574 34.5483 22.9592 34.7738 23.0384 34.9774C23.1176 35.1809 23.2687 35.3483 23.4631 35.4479L25.4207 36.535C25.5088 36.5836 25.5786 36.6595 25.6197 36.7513C25.6608 36.8431 25.6709 36.9457 25.6485 37.0437L25.6278 37.1529C25.5831 37.3926 25.5419 37.6195 25.5024 37.861C25.4887 37.9594 25.4443 38.051 25.3754 38.1226C25.3066 38.1942 25.2169 38.2422 25.1191 38.2598L22.9113 38.6164C22.6954 38.6429 22.4966 38.7471 22.3519 38.9095C22.2072 39.0719 22.1265 39.2815 22.125 39.499V40.4941C22.1238 40.7125 22.2036 40.9235 22.349 41.0864C22.4944 41.2493 22.6951 41.3524 22.9122 41.3758L25.1191 41.7316C25.2182 41.7478 25.3095 41.7956 25.3792 41.8679C25.449 41.9403 25.4934 42.0333 25.5058 42.133C25.5479 42.4045 25.5917 42.6847 25.6519 42.9511C25.6713 43.048 25.6599 43.1485 25.6194 43.2386C25.5789 43.3288 25.5112 43.404 25.4259 43.4538L23.4691 44.5426C23.2747 44.6417 23.1235 44.8088 23.0443 45.0121C22.965 45.2154 22.9633 45.4407 23.0394 45.6452L23.3831 46.5819C23.4578 46.787 23.6053 46.9574 23.7976 47.0606C23.9899 47.1638 24.2134 47.1926 24.4256 47.1414L26.6213 46.716C26.7195 46.6982 26.8208 46.712 26.9106 46.7554C27.0005 46.7987 27.0743 46.8695 27.1214 46.9575C27.2503 47.1981 27.3887 47.4413 27.5339 47.6811C27.5869 47.7664 27.6118 47.8662 27.605 47.9665C27.5982 48.0667 27.5601 48.1623 27.4961 48.2397L26.0352 49.9266C25.885 50.0848 25.7978 50.2923 25.7899 50.5102C25.782 50.7281 25.8539 50.9414 25.9922 51.11L26.629 51.8757C26.7676 52.0439 26.9638 52.1547 27.1794 52.1864C27.3951 52.2182 27.6148 52.1687 27.796 52.0476L29.7185 50.8934C29.8037 50.8424 29.9031 50.8201 30.002 50.8298C30.1008 50.8396 30.194 50.8808 30.2676 50.9476C30.4807 51.1341 30.6973 51.3137 30.9009 51.4795C30.9791 51.5413 31.0355 51.6262 31.0623 51.7221C31.089 51.818 31.0846 51.92 31.0496 52.0132L30.253 54.1101C30.1663 54.3101 30.1562 54.5351 30.2244 54.7421C30.2927 54.9492 30.4347 55.124 30.6234 55.2333L31.4922 55.7351C31.6809 55.8441 31.9032 55.8796 32.1165 55.8349C32.3297 55.7902 32.519 55.6684 32.6481 55.4928L34.0703 53.744C34.1906 53.5953 34.3797 53.5291 34.5198 53.5858C34.8188 53.7096 35.0191 53.7792 35.374 53.8978C35.4685 53.9287 35.5508 53.9889 35.6087 54.0698C35.6667 54.1506 35.6973 54.2478 35.6963 54.3473L35.6619 56.5859C35.6503 56.8046 35.7186 57.02 35.8541 57.1921C35.9896 57.3641 36.1831 57.481 36.3984 57.5209L37.3824 57.6928C37.5968 57.7302 37.8175 57.6883 38.0033 57.5749C38.1891 57.4616 38.3273 57.2844 38.3921 57.0766L39.1226 54.948C39.1556 54.8532 39.2182 54.7716 39.3012 54.7152C39.3841 54.6587 39.483 54.6303 39.5832 54.6343H40.4211C40.5206 54.6321 40.6182 54.6614 40.7 54.7181C40.7818 54.7747 40.8436 54.8558 40.8766 54.9497L41.6045 57.0698C41.6609 57.2538 41.7747 57.4149 41.9294 57.5295C42.084 57.6441 42.2713 57.7062 42.4638 57.7066C42.5151 57.7067 42.5663 57.7021 42.6168 57.6928L43.6025 57.5209C43.8166 57.4816 44.0092 57.366 44.1445 57.1955C44.2798 57.0249 44.3486 56.8111 44.3381 56.5937L44.3038 54.3455C44.3031 54.2465 44.334 54.1498 44.3919 54.0695C44.4498 53.9891 44.5318 53.9293 44.626 53.8987C44.956 53.7878 45.1881 53.6984 45.3917 53.6194L45.4433 53.5996C45.7097 53.5076 45.8386 53.6194 45.9134 53.7122L47.3528 55.4851C47.4818 55.6604 47.671 55.7821 47.884 55.8268C48.0971 55.8715 48.3192 55.8361 48.5078 55.7274L49.3732 55.2264C49.5625 55.1171 49.7049 54.9418 49.7732 54.7342C49.8415 54.5265 49.831 54.301 49.7436 54.1006L48.9495 52.0089C48.9145 51.9157 48.9097 51.8138 48.9357 51.7178C48.9618 51.6217 49.0174 51.5362 49.0948 51.4735C49.3036 51.3016 49.5176 51.1298 49.7307 50.939C49.8044 50.8726 49.8974 50.8316 49.9961 50.822C50.0948 50.8124 50.1939 50.8347 50.279 50.8857L52.2031 52.0373C52.3855 52.1561 52.6051 52.2043 52.8205 52.1726C53.0358 52.1409 53.2323 52.0317 53.3727 51.8654L54.0087 51.1005C54.1497 50.9342 54.2245 50.7217 54.2186 50.5036C54.2128 50.2856 54.1267 50.0774 53.9769 49.9189L52.5108 48.2285C52.4456 48.1525 52.4067 48.0576 52.3997 47.9578C52.3928 47.8579 52.4182 47.7585 52.4721 47.6742C52.6191 47.4413 52.7591 47.1955 52.8863 46.9489C52.9341 46.8607 53.0085 46.7897 53.0989 46.7462C53.1893 46.7027 53.2912 46.6888 53.3899 46.7066L55.5796 47.1337C55.7919 47.1849 56.0156 47.1562 56.208 47.053C56.4004 46.9498 56.5481 46.7793 56.6229 46.5742L56.9623 45.6392C57.0383 45.4346 57.0365 45.2092 56.9573 45.0058C56.8781 44.8024 56.727 44.6352 56.5327 44.5358L54.5733 43.4469C54.4865 43.3979 54.4178 43.3221 54.3774 43.231C54.337 43.1398 54.327 43.038 54.349 42.9408L54.3696 42.8316C54.4143 42.5919 54.4556 42.365 54.4951 42.1235C54.5088 42.0251 54.5532 41.9336 54.622 41.8619C54.6909 41.7903 54.7806 41.7423 54.8784 41.7248L57.0861 41.369C57.3025 41.3428 57.502 41.2387 57.6473 41.0761C57.7925 40.9135 57.8734 40.7035 57.875 40.4855V39.4792ZM33.602 47.5573C33.4949 47.7435 33.3451 47.9017 33.165 48.0188C32.9849 48.1359 32.7796 48.2086 32.566 48.2309C32.3523 48.2532 32.1364 48.2245 31.936 48.1471C31.7356 48.0698 31.5564 47.946 31.4131 47.7859C29.4771 45.6452 28.4081 42.86 28.4148 39.9737C28.4215 37.0874 29.5033 34.3071 31.4492 32.1754C31.5932 32.0154 31.7732 31.8919 31.9743 31.8151C32.1754 31.7382 32.3919 31.7103 32.6059 31.7335C32.8199 31.7568 33.0253 31.8306 33.2052 31.9488C33.3851 32.067 33.5343 32.2262 33.6406 32.4134L37.5637 39.3185C37.6815 39.5244 37.7435 39.7576 37.7435 39.9948C37.7435 40.2321 37.6815 40.4652 37.5637 40.6712L33.602 47.5573ZM40 51.6119C39.1822 51.6121 38.3667 51.5257 37.5671 51.354C37.3588 51.3075 37.1644 51.2126 36.9997 51.0769C36.8349 50.9412 36.7044 50.7686 36.6188 50.5731C36.5332 50.3776 36.4948 50.1647 36.5068 49.9516C36.5189 49.7385 36.5809 49.5312 36.688 49.3465L40.6411 42.4715C40.76 42.2644 40.9315 42.0923 41.1382 41.9726C41.3449 41.853 41.5796 41.79 41.8184 41.7901H49.7367C49.95 41.7897 50.1604 41.8397 50.3508 41.9358C50.5412 42.0319 50.7063 42.1715 50.8327 42.3434C50.959 42.5152 51.0431 42.7144 51.0782 42.9248C51.1132 43.1352 51.0982 43.3509 51.0344 43.5544C49.5313 48.2225 45.1563 51.6119 40 51.6119ZM40.6454 37.5267L36.7344 30.6397C36.6284 30.4547 36.5674 30.2475 36.5563 30.0346C36.5453 29.8217 36.5845 29.6092 36.6707 29.4143C36.757 29.2194 36.8879 29.0475 37.0529 28.9125C37.2178 28.7775 37.4123 28.6833 37.6204 28.6373C38.4029 28.4724 39.2004 28.3895 40 28.3898C45.1563 28.3898 49.5313 31.7792 51.0318 36.4499C51.0957 36.6534 51.1107 36.8691 51.0756 37.0795C51.0406 37.2899 50.9565 37.4891 50.8301 37.6609C50.7037 37.8327 50.5386 37.9724 50.3482 38.0685C50.1578 38.1646 49.9474 38.2145 49.7341 38.2142H41.8279C41.5876 38.2147 41.3514 38.1513 41.1436 38.0305C40.9358 37.9097 40.7639 37.7358 40.6454 37.5267Z" fill="white"/>
</svg>
