<svg width="55" height="55" viewBox="0 0 55 55" fill="none" xmlns="http://www.w3.org/2000/svg">
<g id="Team">
<path id="Vector" d="M27.8174 4.81461C15.0584 4.64229 4.64228 15.0579 4.81461 27.8163C4.98476 40.0522 14.9483 50.0152 27.1848 50.1853C39.9459 50.3598 50.3598 39.9442 50.1853 27.1859C50.0174 14.9478 40.0539 4.98475 27.8174 4.81461ZM27.416 21.4044C27.4389 21.2735 27.464 21.1426 27.4934 21.0128C27.7689 19.7391 28.3827 18.5632 29.2702 17.6089C30.6761 16.1115 32.6688 15.2848 34.8818 15.2848C35.8129 15.281 36.7376 15.4381 37.6151 15.7494C38.7059 16.1377 39.6882 16.7809 40.4803 17.6253C41.6456 18.8848 42.3393 20.5086 42.4436 22.2213C42.4737 22.6352 42.4737 23.0507 42.4436 23.4646V23.4646C42.3596 24.6376 42.0562 25.7845 41.5492 26.8456C41.494 26.9612 41.4361 27.0757 41.3758 27.1891C41.2547 27.4149 41.1249 27.6363 40.9853 27.8501C40.7074 28.2768 40.3924 28.6783 40.0441 29.0498C38.6131 30.5767 36.7807 31.4197 34.884 31.4197C34.1727 31.4193 33.4664 31.3021 32.7931 31.0729C32.5669 30.9961 32.3448 30.9077 32.1278 30.8079C31.2188 30.3838 30.4011 29.7867 29.7206 29.0498C28.3041 27.5134 27.4572 25.5378 27.3211 23.4526C27.3015 23.1705 27.2949 22.8913 27.3015 22.615C27.3099 22.2099 27.3482 21.806 27.416 21.4066V21.4044ZM11.085 24.059C11.1381 23.2808 11.3302 22.5184 11.6522 21.8079C11.743 21.61 11.8442 21.4171 11.9554 21.2299C12.1777 20.8546 12.4407 20.5049 12.7396 20.1872C13.1824 19.7149 13.6979 19.3165 14.2666 19.0071C14.5506 18.8519 14.8464 18.7192 15.1511 18.6101C16.3189 18.2017 17.5745 18.1117 18.7886 18.3495C20.0751 18.5983 21.2501 19.2472 22.1458 20.2036C23.2086 21.3508 23.8076 22.8519 23.8265 24.4156C23.832 24.6458 23.8265 24.877 23.8102 25.1115C23.7436 26.0094 23.5222 26.8891 23.1557 27.7116C22.9803 28.1075 22.7712 28.4877 22.5308 28.848C22.0684 29.5467 21.4865 30.1584 20.8118 30.6552C20.6482 30.7719 20.4781 30.881 20.3025 30.99C19.9571 31.1957 19.5916 31.3656 19.2118 31.4972C18.6438 31.6956 18.0465 31.7974 17.4449 31.7982C17.3434 31.7982 17.242 31.7982 17.1416 31.7895C16.9413 31.7785 16.7417 31.7559 16.5439 31.7218C16.3472 31.6876 16.1524 31.6428 15.9604 31.5877C15.6721 31.5044 15.3906 31.3991 15.1184 31.2725C15.0268 31.23 14.9373 31.1853 14.8479 31.1384C12.8847 30.1033 11.4046 27.958 11.1145 25.4539C11.1014 25.3394 11.0905 25.2249 11.0828 25.1093C11.0582 24.7596 11.0589 24.4086 11.085 24.059V24.059ZM16.966 43.5379C14.062 41.6238 11.7281 38.9618 10.2103 35.8325C10.1607 35.7324 10.1514 35.6171 10.1843 35.5104C10.2171 35.4037 10.2897 35.3136 10.387 35.2588C12.4135 34.1191 15.0017 33.4985 17.447 33.4985C19.3012 33.4985 20.7955 33.7166 22.1032 34.1398C22.2515 34.1886 22.3839 34.2763 22.4868 34.3937C22.5896 34.5111 22.6591 34.6539 22.6879 34.8073C22.7168 34.9607 22.704 35.119 22.6508 35.2657C22.5977 35.4125 22.5061 35.5423 22.3857 35.6416C19.8389 37.7138 18.1974 40.2812 17.4263 43.3579C17.4148 43.405 17.3921 43.4486 17.3602 43.485C17.3282 43.5215 17.288 43.5497 17.2429 43.5674C17.1978 43.585 17.1491 43.5915 17.1009 43.5864C17.0527 43.5813 17.0064 43.5646 16.966 43.5379V43.5379ZM27.5011 46.6953C25.0455 46.6978 22.6124 46.2267 20.3352 45.308C20.2421 45.2696 20.1652 45.2001 20.1175 45.1115C20.0698 45.0228 20.0542 44.9204 20.0734 44.8216C20.1171 44.598 20.1651 44.394 20.2076 44.2239C20.9842 41.1232 22.9081 38.5525 25.7701 36.7879C28.3104 35.2228 31.5508 34.3612 34.8796 34.3612C38.2782 34.3612 41.4238 35.1879 43.9847 36.7508C44.05 36.7916 44.0968 36.8562 44.1153 36.9309C44.1338 37.0055 44.1226 37.0845 44.084 37.1511C42.3951 40.0524 39.9752 42.4603 37.0656 44.1349C34.156 45.8096 30.8582 46.6923 27.5011 46.6953V46.6953Z" stroke="#4E4E4E" stroke-width="2"/>
<path id="Vector_2" d="M17.323 31.7238C17.1171 31.7125 16.9121 31.6893 16.709 31.6543C16.9121 31.6893 17.1171 31.7125 17.323 31.7238Z" fill="#4E4E4E"/>
<path id="Vector_3" d="M14.4885 19.1348C13.9233 19.4423 13.4109 19.8383 12.9708 20.3077C12.6738 20.6235 12.4124 20.9711 12.1914 21.3441C12.4124 20.9711 12.6738 20.6235 12.9708 20.3077C13.4109 19.8383 13.9233 19.4423 14.4885 19.1348Z" fill="#4E4E4E"/>
<path id="Vector_4" d="M23.2227 27.7325C23.5868 26.9151 23.8068 26.0409 23.873 25.1485C23.8892 24.9155 23.8947 24.6857 23.8892 24.457C23.895 24.6846 23.8896 24.9152 23.873 25.1485C23.8068 26.0409 23.5868 26.9151 23.2227 27.7325Z" fill="#4E4E4E"/>
<path id="Vector_5" d="M14.4629 19.1467C14.7509 18.9893 15.0507 18.8547 15.3597 18.7441C15.0507 18.8547 14.7509 18.9893 14.4629 19.1467Z" fill="#4E4E4E"/>
<path id="Vector_6" d="M16.1673 31.5304C15.8732 31.4455 15.5861 31.338 15.3086 31.209C15.5861 31.338 15.8732 31.4455 16.1673 31.5304Z" fill="#4E4E4E"/>
<path id="Vector_7" d="M11.3652 25.4805C11.6518 27.9582 13.1169 30.073 15.0528 31.0953C13.1126 30.073 11.6518 27.9539 11.3652 25.4805Z" fill="#4E4E4E"/>
<path id="Vector_8" d="M27.3245 23.5287C27.4586 25.5841 28.2934 27.5313 29.6895 29.0457C30.3602 29.772 31.1661 30.3606 32.0621 30.7786C31.1661 30.3606 30.3602 29.772 29.6895 29.0457C28.2934 27.5313 27.4586 25.5841 27.3245 23.5287C27.3052 23.2507 27.2987 22.9755 27.3052 22.7031C27.2987 22.9719 27.3052 23.2471 27.3245 23.5287Z" fill="#4E4E4E"/>
<path id="Vector_9" d="M32.7365 31.0325C32.5053 30.9541 32.2784 30.8637 32.0566 30.7617C32.2784 30.8637 32.5053 30.9541 32.7365 31.0325Z" fill="#4E4E4E"/>
<path id="Vector_10" d="M27.4941 21.1445C27.7679 19.8787 28.3778 18.7101 29.2598 17.7617C28.3778 18.7101 27.7679 19.8787 27.4941 21.1445Z" fill="#4E4E4E"/>
<path id="Vector_11" d="M40.2988 17.7768C41.4498 19.0208 42.1349 20.6248 42.2379 22.3165C42.1349 20.6248 41.4498 19.0208 40.2988 17.7768C39.5164 16.9427 38.5461 16.3074 37.4688 15.9238C38.5461 16.3074 39.5164 16.9427 40.2988 17.7768Z" fill="#4E4E4E"/>
<path id="Vector_12" d="M42.2286 23.5234C42.1452 24.6892 41.8437 25.8289 41.3398 26.8835C41.8437 25.8289 42.1452 24.6892 42.2286 23.5234Z" fill="#4E4E4E"/>
<path id="Vector_13" d="M27.3047 22.7191C27.3132 22.3098 27.352 21.9016 27.4209 21.498C27.352 21.9016 27.3132 22.3098 27.3047 22.7191Z" fill="#4E4E4E"/>
<path id="Vector_14" d="M41.1783 27.1973C41.0546 27.428 40.9219 27.6542 40.7793 27.8726C40.9219 27.6542 41.0546 27.428 41.1783 27.1973Z" fill="#4E4E4E"/>
<path id="Vector_15" d="M22.2339 20.3138C23.2837 21.447 23.8753 22.9297 23.894 24.4743C23.8753 22.9297 23.2837 21.447 22.2339 20.3138C21.3492 19.3692 20.1887 18.7282 18.918 18.4824C20.1887 18.7282 21.3492 19.3692 22.2339 20.3138Z" fill="#4E4E4E"/>
<path id="Vector_16" d="M20.4367 30.9375C20.0887 31.1447 19.7206 31.3159 19.3379 31.4484C19.7206 31.3159 20.0887 31.1447 20.4367 30.9375Z" fill="#4E4E4E"/>
<path id="Vector_17" d="M11.332 24.132C11.3848 23.3585 11.5757 22.6007 11.8957 21.8945C11.5757 22.6007 11.3848 23.3585 11.332 24.132Z" fill="#4E4E4E"/>
<path id="Vector_18" d="M20.9442 30.6035C20.7719 30.7313 20.5939 30.8455 20.4102 30.9596C20.5939 30.8455 20.7719 30.7313 20.9442 30.6035Z" fill="#4E4E4E"/>
<path id="Vector_19" d="M23.237 27.7051C23.0603 28.104 22.8496 28.4871 22.6074 28.85C22.8496 28.4871 23.0603 28.104 23.237 27.7051Z" fill="#4E4E4E"/>
<path id="Vector_20" d="M11.8926 21.92C11.9859 21.7167 12.0899 21.5185 12.2041 21.3262C12.0899 21.5185 11.9859 21.7167 11.8926 21.92Z" fill="#4E4E4E"/>
<path id="Vector_21" d="M20.9121 30.6222C21.5841 30.1274 22.1636 29.5181 22.6241 28.8223C22.1636 29.5181 21.5841 30.1274 20.9121 30.6222Z" fill="#4E4E4E"/>
</g>
</svg>
